<?xml version="1.0" standalone="no"?>
<!DOCTYPE svg PUBLIC "-//W3C//DTD SVG 20010904//EN"
 "http://www.w3.org/TR/2001/REC-SVG-20010904/DTD/svg10.dtd">
<svg version="1.0" xmlns="http://www.w3.org/2000/svg"
 width="128.000000pt" height="128.000000pt" viewBox="0 0 128.000000 128.000000"
 preserveAspectRatio="xMidYMid meet">
<metadata>
Created by potrace 1.11, written by Peter Selinger 2001-2013
</metadata>
<g transform="translate(0.000000,128.000000) scale(0.100000,-0.100000)"
fill="#000000" stroke="none">
<path d="M998 1255 c-15 -8 -30 -25 -33 -37 -10 -32 -64 -87 -101 -103 -17 -7
-54 -16 -83 -20 -36 -5 -65 -17 -94 -39 -49 -37 -117 -123 -117 -148 0 -16
-10 -18 -71 -18 -83 0 -104 -16 -125 -96 -27 -101 -17 -142 42 -179 30 -19 44
-35 44 -50 0 -12 11 -32 25 -45 32 -30 32 -47 0 -72 -20 -15 -25 -28 -25 -63
0 -51 17 -67 127 -117 50 -22 88 -32 145 -36 l78 -5 34 36 c58 62 102 163 177
411 43 141 48 206 23 264 -17 37 -33 100 -37 137 -2 15 6 21 36 26 48 8 66 25
74 72 5 31 1 40 -25 67 -34 33 -54 36 -94 15z"/>
</g>
</svg>
